# xmcd CD database file
#
# Track frame offsets:
#	150
#	19865
#	40618
#	63378
#	82280
#	98392
#	122615
#	137483
#	159381
#	168711
#	196041
#	214731
#	236447
#
# Disc length: 3393 seconds
#
# Revision: 0
# Processed by: cddbd v1.5.1PL2 Copyright (c) Steve Scherf et al.
# Submitted via: CDex 1.51
#
DISCID=a20d3f0d
DTITLE=Tyrone Cotton - Tyrone Cotton
DYEAR=2005
DGENRE=Blues
TTITLE0=Breaking Away
TTITLE1=What's Wrong
TTITLE2=Night Wind
TTITLE3=Sally Ann
TTITLE4=Naomi
TTITLE5=High-water Rising
TTITLE6=Storm
TTITLE7=Sweet Virginia
TTITLE8=As Befits A Man (Don't Mind Dyin')
TTITLE9=Most Of The Time
TTITLE10=This Time
TTITLE11=Evening Song
TTITLE12=Something
EXTD=YEAR: 2005
EXTT0=
EXTT1=
EXTT2=
EXTT3=
EXTT4=
EXTT5=
EXTT6=
EXTT7=
EXTT8=
EXTT9=
EXTT10=
EXTT11=
EXTT12=
PLAYORDER=
